<svg width="196" height="47" viewBox="0 0 196 47" fill="none" xmlns="http://www.w3.org/2000/svg">
<path d="M0 27.6019V9.79688L4.96923 14.0357L4.94052 23.0923H11.275L14.4878 27.6019H0Z" fill="#001D3D"/>
<path d="M53.2318 14.7135C53.0054 14.2526 52.8012 13.7948 52.623 13.3512C52.5486 13.8484 52.4478 14.3687 52.3219 14.9027L49.5505 27.6295H44.9141L51.3236 0.0234375L59.2078 16.6726C59.3233 16.9277 59.4978 17.344 59.7415 17.9491C59.8756 18.2835 60.026 18.6623 60.1917 19.0857C60.4008 18.5683 60.6546 17.9863 60.9522 17.345C61.0872 17.052 61.1887 16.8262 61.2565 16.668L68.9926 0.0234375L75.5242 27.6292H70.8521L67.9917 14.8636C67.9476 14.6754 67.8831 14.2255 67.7959 13.496C67.6221 13.9818 67.412 14.4822 67.1689 14.9882L60.2191 28.6875L53.2318 14.7129V14.7135Z" fill="#001D3D"/>
<path d="M130.61 28.6898V13.7495L125.981 9.80042V18.2871C125.751 18.0157 125.525 17.758 125.307 17.5159C124.861 17.0249 124.41 16.5512 123.961 16.1023L107.25 0.0195312V27.6139H111.863V10.939L130.61 28.6898" fill="#001D3D"/>
<path d="M29.1792 28.2252C27.3216 28.2252 25.5234 27.8761 23.8342 27.1877C22.1436 26.4984 20.6309 25.5047 19.337 24.234C18.0184 22.9502 17.0021 21.4743 16.32 19.8474C15.6362 18.2221 15.2891 16.4542 15.2891 14.593C15.2891 12.7436 15.6355 10.9761 16.3196 9.33868C17.0015 7.70228 18.0167 6.21465 19.337 4.91753C20.657 3.63346 22.173 2.64269 23.8446 1.97162C25.5153 1.30088 27.3102 0.960938 29.1796 0.960938C31.0365 0.960938 32.823 1.30088 34.4887 1.97162C36.1545 2.64301 37.6672 3.63346 38.9856 4.9159C40.3055 6.22476 41.323 7.72023 42.013 9.36413C42.7027 11.0087 43.0521 12.7681 43.0521 14.5934C43.0521 16.4304 42.7024 18.1927 42.013 19.8311C41.3221 21.4711 40.3036 22.9532 38.9856 24.2353C37.6558 25.518 36.1349 26.5137 34.4643 27.1962C32.792 27.8793 31.014 28.2255 29.1796 28.2255L29.1792 28.2252ZM29.1792 5.57327C28.0035 5.57327 26.8691 5.79902 25.8086 6.24531C24.7476 6.69128 23.7901 7.34832 22.9634 8.19751C22.1342 9.03757 21.4934 10.0146 21.0576 11.1039C20.6214 12.1965 20.4005 13.37 20.4005 14.593C20.4005 15.804 20.6214 16.9658 21.0572 18.0466C21.4934 19.1258 22.1351 20.1038 22.9631 20.9537C23.7908 21.8035 24.7457 22.4602 25.8004 22.9065C26.8545 23.3522 27.9914 23.5779 29.1792 23.5779C30.3436 23.5779 31.4655 23.3522 32.5143 22.9068C33.5638 22.4609 34.522 21.8032 35.3621 20.952C36.19 20.1025 36.834 19.1212 37.2748 18.0371C37.7168 16.9527 37.9406 15.7936 37.9406 14.593C37.9406 13.3804 37.7168 12.2128 37.2748 11.1229C36.834 10.0329 36.1897 9.04931 35.3604 8.19751C34.554 7.35843 33.6079 6.70465 32.5479 6.25282C31.4877 5.80228 30.354 5.57327 29.1796 5.57327H29.1792Z" fill="#001D3D"/>
<path d="M144.922 28.2245C142.697 28.2245 140.84 27.6999 139.403 26.6654C137.953 25.6224 136.992 24.1156 136.546 22.1859L136.469 21.8515L140.502 19.9838L140.634 20.465C140.919 21.5024 141.424 22.2677 142.175 22.8047C142.922 23.3404 143.904 23.6118 145.093 23.6118C146.207 23.6118 147.06 23.3179 147.701 22.7127C148.336 22.1144 148.644 21.3259 148.644 20.3028C148.644 19.0083 147.487 17.8061 145.205 16.7292C144.86 16.557 144.603 16.4343 144.424 16.356C141.556 14.9584 139.696 13.7223 138.724 12.5697C137.739 11.4015 137.24 9.95821 137.24 8.2807C137.24 6.11449 137.989 4.33096 139.467 2.98067C140.935 1.64049 142.874 0.960938 145.23 0.960938C147.154 0.960938 148.793 1.34133 150.102 2.09232C151.435 2.85637 152.372 3.97079 152.887 5.4033L153.013 5.75172L149.14 7.75024L148.933 7.42465C148.465 6.6916 147.953 6.15233 147.41 5.82055C146.878 5.49725 146.255 5.33283 145.557 5.33283C144.567 5.33283 143.779 5.58631 143.215 6.08611C142.656 6.58003 142.385 7.23022 142.385 8.07386C142.385 9.40034 143.737 10.6948 146.404 11.9212C146.623 12.0252 146.794 12.1045 146.918 12.1613C149.489 13.3465 151.214 14.4824 152.192 15.6354C153.183 16.8043 153.686 18.2762 153.686 20.0108C153.686 22.5062 152.882 24.523 151.297 26.0041C149.721 27.4781 147.576 28.2252 144.921 28.2252L144.922 28.2245Z" fill="#1F428E"/>
<path d="M186.977 28.2245C184.752 28.2245 182.896 27.6999 181.458 26.6654C180.008 25.6224 179.046 24.1156 178.601 22.1859L178.523 21.8515L182.556 19.9838L182.689 20.465C182.974 21.5024 183.478 22.2678 184.229 22.8047C184.977 23.3404 185.959 23.6118 187.148 23.6118C188.262 23.6118 189.115 23.3179 189.756 22.7127C190.39 22.1144 190.699 21.3262 190.699 20.3028C190.699 19.0083 189.542 17.8061 187.26 16.7292C186.916 16.557 186.658 16.4343 186.479 16.356C183.612 14.9584 181.752 13.7223 180.779 12.5701C179.794 11.4008 179.295 9.95788 179.295 8.2807C179.295 6.11416 180.044 4.33063 181.522 2.98067C182.99 1.64049 184.929 0.960938 187.286 0.960938C189.209 0.960938 190.848 1.34133 192.157 2.09232C193.491 2.8567 194.427 3.97079 194.943 5.4033L195.068 5.75172L191.196 7.74991L190.989 7.42498C190.521 6.69226 190.009 6.15266 189.465 5.82088C188.934 5.49758 188.311 5.33316 187.613 5.33316C186.623 5.33316 185.835 5.58664 185.27 6.08643C184.712 6.58036 184.441 7.23054 184.441 8.07419C184.441 9.40067 185.793 10.6952 188.46 11.9215C188.679 12.0252 188.849 12.1048 188.974 12.161C191.545 13.3462 193.269 14.4824 194.247 15.6357C195.238 16.8039 195.741 18.2759 195.741 20.0112C195.741 22.5069 194.938 24.5234 193.353 26.0045C191.777 27.4784 189.631 28.2255 186.976 28.2255L186.977 28.2245Z" fill="#1F428E"/>
<path d="M163.976 27.6036V15.7776L155.16 1.57812H160.456L165.86 10.3268C165.994 10.5594 166.155 10.8501 166.346 11.2106C166.406 11.3218 166.465 11.436 166.525 11.5534C166.576 11.4458 166.627 11.3398 166.679 11.2367C166.864 10.8661 167.06 10.5222 167.262 10.2146L172.802 1.57812H177.897L168.881 15.7802V27.6036H163.976H163.976Z" fill="#1F428E"/>
<path d="M0 8.09773V0.046875L4.96923 4.61777V12.3417L0 8.09773Z" fill="#1F428E"/>
<path d="M87.0586 23.4499L88.9668 18.8203H94.4361L91.023 23.4499H87.0586Z" fill="#1F428E"/>
<path d="M98.9973 27.6025L97.4738 24.1418L91.4254 9.57046L85.6637 23.4502L83.7918 27.6025H78.5547L91.4136 0L104.254 27.6025H98.9973Z" fill="#001D3D"/>
<path d="M1.38363 42.3514H3.97166V43.1363H0.417969V35.7422H1.38363V42.3511V42.3514Z" fill="#BF2315" stroke="#BF2315" stroke-width="0.2"/>
<path d="M7.11508 42.86C6.67271 42.6124 6.3269 42.2607 6.0757 41.8043C5.82449 41.3479 5.69922 40.8194 5.69922 40.2181C5.69922 39.6241 5.82776 39.0992 6.08581 38.6428C6.34419 38.1867 6.69587 37.8366 7.14151 37.5926C7.58715 37.3486 8.08596 37.2266 8.6373 37.2266C9.18864 37.2266 9.68778 37.3486 10.1331 37.5926C10.5784 37.8366 10.9304 38.185 11.1888 38.6375C11.4472 39.09 11.576 39.6172 11.576 40.2178C11.576 40.8184 11.4429 41.3476 11.1784 41.804C10.9131 42.2601 10.5539 42.6121 10.1015 42.8597C9.64896 43.1073 9.14656 43.2309 8.59457 43.2309C8.0504 43.2309 7.55713 43.1073 7.11476 42.8597L7.11508 42.86ZM9.57099 42.1387C9.87504 41.9759 10.121 41.7319 10.3083 41.4066C10.4955 41.0817 10.5898 40.6853 10.5898 40.2185C10.5898 39.7516 10.4975 39.3559 10.3135 39.0306C10.1295 38.7054 9.8894 38.4633 9.59252 38.3041C9.29565 38.1449 8.97333 38.0653 8.62752 38.0653C8.27388 38.0653 7.95025 38.1449 7.65664 38.3041C7.36368 38.4633 7.12781 38.7054 6.95164 39.0306C6.77482 39.3559 6.68641 39.7516 6.68641 40.2185C6.68641 40.6928 6.77286 41.0921 6.94609 41.4174C7.11965 41.7427 7.35095 41.9847 7.6413 42.1439C7.93133 42.3031 8.24941 42.3827 8.59554 42.3827C8.94168 42.3827 9.26759 42.3015 9.57164 42.1387H9.57099Z" fill="#BF2315" stroke="#BF2315" stroke-width="0.2"/>
<path d="M17.6294 37.5557C18.0078 37.775 18.2884 38.051 18.4724 38.3831V37.3225H19.4485V43.2629C19.4485 43.7937 19.3349 44.2654 19.1089 44.6794C18.8821 45.0928 18.5588 45.4167 18.138 45.65C17.7171 45.8832 17.2278 46 16.6693 46C15.9049 46 15.2691 45.82 14.7595 45.4591C14.2502 45.0986 13.9491 44.607 13.8574 43.9845H14.8123C14.9184 44.3379 15.1376 44.6227 15.4704 44.8386C15.8028 45.0543 16.2024 45.1619 16.6693 45.1619C17.1994 45.1619 17.6326 44.9956 17.9683 44.6631C18.3047 44.3307 18.4727 43.8638 18.4727 43.2629V42.0431C18.2815 42.3827 17.9987 42.6656 17.6238 42.8917C17.2493 43.1184 16.8112 43.2313 16.3088 43.2313C15.7923 43.2313 15.3235 43.1037 14.9034 42.8492C14.4825 42.5945 14.152 42.2375 13.9109 41.7776C13.6708 41.3182 13.5508 40.7946 13.5508 40.2077C13.5508 39.6133 13.6708 39.092 13.9109 38.6428C14.1517 38.1939 14.4822 37.8454 14.9034 37.5978C15.3235 37.3505 15.7923 37.2266 16.3088 37.2266C16.8112 37.2266 17.2506 37.3362 17.6297 37.5554L17.6294 37.5557ZM18.2071 39.0724C18.0303 38.7475 17.7915 38.4979 17.4911 38.3243C17.1903 38.1514 16.8598 38.0643 16.4993 38.0643C16.1388 38.0643 15.81 38.1492 15.5121 38.3191C15.2152 38.4888 14.9781 38.7364 14.8019 39.0616C14.6251 39.3869 14.5367 39.7689 14.5367 40.2077C14.5367 40.653 14.6251 41.0403 14.8019 41.3691C14.9781 41.698 15.2152 41.9492 15.5121 42.1224C15.8096 42.2956 16.1385 42.3824 16.4993 42.3824C16.8601 42.3824 17.1899 42.2959 17.4911 42.1224C17.7912 41.9492 18.03 41.698 18.2071 41.3691C18.3843 41.0403 18.4724 40.6566 18.4724 40.2181C18.4724 39.7797 18.384 39.398 18.2071 39.0724Z" fill="#BF2315" stroke="#BF2315" stroke-width="0.2"/>
<path d="M22.1795 36.187C22.0516 36.0598 21.9883 35.9042 21.9883 35.7202C21.9883 35.5362 22.0516 35.3809 22.1795 35.2533C22.3067 35.1261 22.4623 35.0625 22.6463 35.0625C22.8225 35.0625 22.9729 35.1261 23.0968 35.2533C23.2201 35.3809 23.2821 35.5365 23.2821 35.7202C23.2821 35.9039 23.2201 36.0598 23.0968 36.187C22.9729 36.3146 22.8225 36.3782 22.6463 36.3782C22.4623 36.3782 22.3067 36.3146 22.1795 36.187ZM23.1131 37.3223V43.1355H22.1475V37.3223H23.1131V37.3223Z" fill="#BF2315" stroke="#BF2315" stroke-width="0.2"/>
<path d="M26.6738 43.0022C26.3202 42.8502 26.0412 42.6382 25.8357 42.3658C25.6305 42.0937 25.5173 41.7808 25.4961 41.4272H26.4934C26.5218 41.7175 26.6581 41.954 26.9022 42.138C27.1455 42.322 27.4659 42.4137 27.8623 42.4137C28.2296 42.4137 28.5197 42.3328 28.732 42.1697C28.9444 42.0072 29.0504 41.802 29.0504 41.5544C29.0504 41.2999 28.9376 41.1107 28.7108 40.9871C28.4841 40.8634 28.1344 40.7414 27.6603 40.621C27.2291 40.5082 26.8774 40.393 26.6046 40.2762C26.3329 40.1598 26.0993 39.9862 25.9049 39.7565C25.7104 39.5269 25.6132 39.2244 25.6132 38.8496C25.6132 38.5527 25.7016 38.2806 25.8784 38.033C26.0553 37.7854 26.3065 37.589 26.6317 37.4442C26.9563 37.2993 27.3276 37.2266 27.7455 37.2266C28.3892 37.2266 28.9089 37.3894 29.3046 37.7146C29.701 38.0399 29.9127 38.4855 29.9411 39.0509H28.9761C28.9549 38.7471 28.8328 38.5031 28.61 38.3191C28.3872 38.1351 28.0884 38.0431 27.7138 38.0431C27.3671 38.0431 27.0907 38.1175 26.8862 38.2663C26.681 38.4147 26.5782 38.6092 26.5782 38.8496C26.5782 39.0408 26.6402 39.198 26.7642 39.322C26.8875 39.4456 27.0438 39.5448 27.231 39.6189C27.4183 39.6929 27.6783 39.7764 28.011 39.8681C28.428 39.9813 28.7676 40.0929 29.0292 40.2022C29.2905 40.3118 29.5153 40.4765 29.7032 40.6954C29.8905 40.915 29.9874 41.2011 29.9942 41.5547C29.9942 41.8731 29.9058 42.1596 29.7297 42.414C29.5528 42.6688 29.3036 42.8685 28.9813 43.0133C28.6596 43.1582 28.29 43.2309 27.8727 43.2309C27.4274 43.2309 27.0278 43.1546 26.6738 43.0026V43.0022Z" fill="#BF2315" stroke="#BF2315" stroke-width="0.2"/>
<path d="M33.5894 38.115V41.5414C33.5894 41.8246 33.6494 42.0243 33.7701 42.1407C33.8902 42.2575 34.0986 42.3156 34.3958 42.3156H35.1067V43.1325H34.237C33.6993 43.1325 33.2958 43.0088 33.0273 42.7612C32.7588 42.5136 32.6244 42.1071 32.6244 41.5411V38.1147H31.8711V37.3193H32.6244V35.8555H33.5894V37.3193H35.1064V38.1147H33.5894V38.115Z" fill="#BF2315" stroke="#BF2315" stroke-width="0.2"/>
<path d="M37.363 36.187C37.2352 36.0598 37.1719 35.9042 37.1719 35.7202C37.1719 35.5362 37.2352 35.3809 37.363 35.2533C37.4903 35.1261 37.6459 35.0625 37.8299 35.0625C38.0061 35.0625 38.1565 35.1261 38.2804 35.2533C38.4037 35.3809 38.4657 35.5365 38.4657 35.7202C38.4657 35.9039 38.4037 36.0598 38.2804 36.187C38.1565 36.3146 38.0061 36.3782 37.8299 36.3782C37.6459 36.3782 37.4903 36.3146 37.363 36.187ZM38.2967 37.3223V43.1355H37.3311V37.3223H38.2967V37.3223Z" fill="#BF2315" stroke="#BF2315" stroke-width="0.2"/>
<path d="M41.005 38.6428C41.2458 38.1939 41.5795 37.8454 42.0075 37.5978C42.4356 37.3505 42.9249 37.2266 43.4769 37.2266C44.191 37.2266 44.7796 37.3998 45.2432 37.7463C45.7061 38.093 46.0121 38.5739 46.1605 39.1892H45.1211C45.0216 38.8356 44.8295 38.5563 44.5427 38.3508C44.2566 38.1459 43.901 38.0431 43.4769 38.0431C42.9249 38.0431 42.4796 38.2327 42.14 38.6108C41.801 38.9892 41.6314 39.5249 41.6314 40.2178C41.6314 40.9179 41.801 41.4592 42.14 41.8412C42.4796 42.2232 42.9249 42.4137 43.4769 42.4137C43.901 42.4137 44.255 42.3149 44.5375 42.1168C44.8204 41.9188 45.0145 41.636 45.1211 41.2683H46.1605C46.0049 41.8624 45.6937 42.338 45.2268 42.6949C44.76 43.0522 44.1764 43.2309 43.4766 43.2309C42.9246 43.2309 42.4352 43.1073 42.0072 42.8597C41.5792 42.6121 41.2455 42.262 41.0047 41.8092C40.7646 41.3567 40.6445 40.8263 40.6445 40.2178C40.6445 39.6172 40.7646 39.092 41.0047 38.6424L41.005 38.6428Z" fill="#BF2315" stroke="#BF2315" stroke-width="0.2"/>
<path d="M49.3652 43.0022C49.0116 42.8502 48.7326 42.6382 48.5271 42.3658C48.3219 42.0937 48.2087 41.7808 48.1875 41.4272H49.1848C49.2132 41.7175 49.3496 41.954 49.5936 42.138C49.8369 42.322 50.1573 42.4137 50.5537 42.4137C50.921 42.4137 51.2111 42.3328 51.4234 42.1697C51.6358 42.0072 51.7418 41.802 51.7418 41.5544C51.7418 41.2999 51.629 41.1107 51.4022 40.9871C51.1755 40.8634 50.8258 40.7414 50.3518 40.621C49.9205 40.5082 49.5688 40.393 49.296 40.2762C49.0243 40.1598 48.7907 39.9862 48.5963 39.7565C48.4018 39.5269 48.3046 39.2244 48.3046 38.8496C48.3046 38.5527 48.393 38.2806 48.5698 38.033C48.7467 37.7854 48.9979 37.589 49.3231 37.4442C49.6477 37.2993 50.019 37.2266 50.4369 37.2266C51.0806 37.2266 51.6003 37.3894 51.996 37.7146C52.3924 38.0399 52.6041 38.4855 52.6325 39.0509H51.6675C51.6463 38.7471 51.5242 38.5031 51.3014 38.3191C51.0786 38.1351 50.7798 38.0431 50.4053 38.0431C50.0585 38.0431 49.7821 38.1175 49.5776 38.2663C49.3724 38.4147 49.2696 38.6092 49.2696 38.8496C49.2696 39.0408 49.3316 39.198 49.4556 39.322C49.5789 39.4456 49.7352 39.5448 49.9224 39.6189C50.1097 39.6929 50.3697 39.7764 50.7025 39.8681C51.1194 39.9813 51.459 40.0929 51.7206 40.2022C51.982 40.3118 52.2067 40.4765 52.3946 40.6954C52.5819 40.915 52.6788 41.2011 52.6856 41.5547C52.6856 41.8731 52.5972 42.1596 52.4211 42.414C52.2442 42.6688 51.995 42.8685 51.6727 43.0133C51.351 43.1582 50.9814 43.2309 50.5641 43.2309C50.1188 43.2309 49.7192 43.1546 49.3652 43.0026V43.0022Z" fill="#BF2315" stroke="#BF2315" stroke-width="0.2"/>
<path d="M66.4963 35.7969V43.1378H65.5306V37.6639L63.091 43.1378H62.4118L59.9618 37.6532V43.1378H58.9961V35.7969H60.0361L62.7514 41.8649L65.4673 35.7969H66.4963V35.7969Z" fill="#BF2315" stroke="#BF2315" stroke-width="0.2"/>
<path d="M69.1919 38.6428C69.4326 38.1939 69.7631 37.8454 70.1843 37.5978C70.6045 37.3505 71.0733 37.2266 71.5897 37.2266C72.099 37.2266 72.5407 37.3362 72.9159 37.5554C73.2904 37.7746 73.57 38.0506 73.754 38.3827V37.3221H74.7301V43.1354H73.754V42.0532C73.5628 42.3928 73.2783 42.6737 72.8999 42.8965C72.5214 43.1194 72.0813 43.2306 71.5789 43.2306C71.0632 43.2306 70.5963 43.1031 70.1787 42.8486C69.7618 42.5938 69.433 42.2369 69.1922 41.7769C68.9521 41.3176 68.832 40.794 68.832 40.2071C68.832 39.6127 68.9521 39.0913 69.1922 38.6421L69.1919 38.6428ZM73.4884 39.0724C73.3116 38.7475 73.0728 38.4979 72.7723 38.3243C72.4715 38.1514 72.141 38.0643 71.7806 38.0643C71.4201 38.0643 71.0912 38.1492 70.7934 38.3191C70.4965 38.4888 70.2593 38.7364 70.0831 39.0616C69.9063 39.3869 69.8179 39.7689 69.8179 40.2077C69.8179 40.653 69.9063 41.0403 70.0831 41.3691C70.2593 41.698 70.4965 41.9492 70.7934 42.1224C71.0909 42.2956 71.4197 42.3824 71.7806 42.3824C72.1414 42.3824 72.4712 42.2959 72.7723 42.1224C73.0725 41.9492 73.3113 41.698 73.4884 41.3691C73.6652 41.0403 73.7536 40.6566 73.7536 40.2181C73.7536 39.7797 73.6652 39.398 73.4884 39.0724Z" fill="#BF2315" stroke="#BF2315" stroke-width="0.2"/>
<path d="M81.9768 37.8566C82.4152 38.2846 82.6341 38.9015 82.6341 39.7079V43.1344H81.6792V39.8456C81.6792 39.2659 81.5347 38.8219 81.2447 38.5142C80.954 38.2066 80.5583 38.0526 80.0562 38.0526C79.5476 38.0526 79.1421 38.2118 78.842 38.5299C78.5412 38.8483 78.3914 39.3112 78.3914 39.9197V43.1341H77.4258V37.3209H78.3914V38.1482C78.582 37.8513 78.842 37.6213 79.1708 37.4589C79.5 37.2961 79.8621 37.2148 80.2585 37.2148C80.9654 37.2148 81.538 37.4289 81.9771 37.8566H81.9768Z" fill="#BF2315" stroke="#BF2315" stroke-width="0.2"/>
<path d="M85.2739 38.6428C85.5147 38.1939 85.8451 37.8454 86.2663 37.5978C86.6865 37.3505 87.1553 37.2266 87.6717 37.2266C88.181 37.2266 88.6227 37.3362 88.9979 37.5554C89.3724 37.7746 89.652 38.0506 89.836 38.3827V37.3221H90.8121V43.1354H89.836V42.0532C89.6448 42.3928 89.3603 42.6737 88.9819 42.8965C88.6035 43.1194 88.1634 43.2306 87.661 43.2306C87.1452 43.2306 86.6783 43.1031 86.2608 42.8486C85.8438 42.5938 85.515 42.2369 85.2742 41.7769C85.0341 41.3176 84.9141 40.794 84.9141 40.2071C84.9141 39.6127 85.0341 39.0913 85.2742 38.6421L85.2739 38.6428ZM89.5704 39.0724C89.3936 38.7475 89.1548 38.4979 88.8543 38.3243C88.5536 38.1514 88.2231 38.0643 87.8626 38.0643C87.5021 38.0643 87.1732 38.1492 86.8754 38.3191C86.5785 38.4888 86.3413 38.7364 86.1652 39.0616C85.9884 39.3869 85.8999 39.7689 85.8999 40.2077C85.8999 40.653 85.9884 41.0403 86.1652 41.3691C86.3413 41.698 86.5785 41.9492 86.8754 42.1224C87.1729 42.2956 87.5018 42.3824 87.8626 42.3824C88.2234 42.3824 88.5532 42.2959 88.8543 42.1224C89.1545 41.9492 89.3933 41.698 89.5704 41.3691C89.7476 41.0403 89.8357 40.6566 89.8357 40.2181C89.8357 39.7797 89.7472 39.398 89.5704 39.0724Z" fill="#BF2315" stroke="#BF2315" stroke-width="0.2"/>
<path d="M97.2231 37.5557C97.6016 37.775 97.8821 38.051 98.0661 38.3831V37.3225H99.0422V43.2629C99.0422 43.7937 98.9287 44.2654 98.7026 44.6794C98.4759 45.0928 98.1526 45.4167 97.7317 45.65C97.3109 45.8832 96.8215 46 96.263 46C95.4986 46 94.8628 45.82 94.3532 45.4591C93.844 45.0986 93.5429 44.607 93.4512 43.9845H94.4061C94.5121 44.3379 94.7313 44.6227 95.0641 44.8386C95.3965 45.0543 95.7962 45.1619 96.263 45.1619C96.7932 45.1619 97.2264 44.9956 97.5621 44.6631C97.8984 44.3307 98.0665 43.8638 98.0665 43.2629V42.0431C97.8753 42.3827 97.5924 42.6656 97.2176 42.8917C96.8431 43.1184 96.4049 43.2313 95.9025 43.2313C95.3861 43.2313 94.9173 43.1037 94.4971 42.8492C94.0763 42.5945 93.7458 42.2375 93.5047 41.7776C93.2646 41.3182 93.1445 40.7946 93.1445 40.2077C93.1445 39.6133 93.2646 39.092 93.5047 38.6428C93.7455 38.1939 94.0759 37.8454 94.4971 37.5978C94.9173 37.3505 95.3861 37.2266 95.9025 37.2266C96.4049 37.2266 96.8444 37.3362 97.2235 37.5554L97.2231 37.5557ZM97.8009 39.0724C97.6241 38.7475 97.3853 38.4979 97.0848 38.3243C96.784 38.1514 96.4535 38.0643 96.0931 38.0643C95.7326 38.0643 95.4037 38.1492 95.1059 38.3191C94.809 38.4888 94.5718 38.7364 94.3956 39.0616C94.2188 39.3869 94.1304 39.7689 94.1304 40.2077C94.1304 40.653 94.2188 41.0403 94.3956 41.3691C94.5718 41.698 94.809 41.9492 95.1059 42.1224C95.4034 42.2956 95.7322 42.3824 96.0931 42.3824C96.4539 42.3824 96.7837 42.2959 97.0848 42.1224C97.385 41.9492 97.6237 41.698 97.8009 41.3691C97.978 41.0403 98.0661 40.6566 98.0661 40.2181C98.0661 39.7797 97.9777 39.398 97.8009 39.0724Z" fill="#BF2315" stroke="#BF2315" stroke-width="0.2"/>
<path d="M107.012 40.5897H102.365C102.4 41.1623 102.596 41.6099 102.954 41.9315C103.311 42.2532 103.744 42.414 104.254 42.414C104.671 42.414 105.019 42.3168 105.299 42.1227C105.578 41.928 105.774 41.6683 105.887 41.3427H106.927C106.771 41.9015 106.46 42.356 105.993 42.7057C105.526 43.0561 104.947 43.2309 104.254 43.2309C103.702 43.2309 103.209 43.1073 102.774 42.8597C102.339 42.6121 101.997 42.2604 101.75 41.804C101.502 41.3476 101.379 40.8191 101.379 40.2178C101.379 39.6166 101.499 39.09 101.739 38.6375C101.98 38.185 102.317 37.8366 102.752 37.5926C103.187 37.3486 103.687 37.2266 104.254 37.2266C104.805 37.2266 105.293 37.3469 105.717 37.5871C106.141 37.8275 106.469 38.1583 106.699 38.5791C106.928 39 107.043 39.4756 107.043 40.0058C107.043 40.1898 107.033 40.3845 107.012 40.5894V40.5897ZM105.802 38.8555C105.64 38.5902 105.418 38.3883 105.139 38.2506C104.86 38.1129 104.551 38.0438 104.211 38.0438C103.723 38.0438 103.307 38.1997 102.964 38.5106C102.622 38.8222 102.425 39.2535 102.376 39.8051H106.046C106.046 39.4375 105.965 39.1207 105.802 38.8558V38.8555Z" fill="#BF2315" stroke="#BF2315" stroke-width="0.2"/>
<path d="M117.575 37.4938C117.929 37.6814 118.208 37.9626 118.413 38.3371C118.619 38.7116 118.721 39.168 118.721 39.7053V43.1318H117.766V39.843C117.766 39.2633 117.623 38.8193 117.336 38.5116C117.05 38.204 116.663 38.05 116.175 38.05C115.672 38.05 115.273 38.2112 114.976 38.5328C114.679 38.8545 114.531 39.3194 114.531 39.9275V43.1311H113.576V39.8424C113.576 39.2626 113.432 38.8186 113.146 38.511C112.86 38.2033 112.472 38.0494 111.984 38.0494C111.482 38.0494 111.083 38.2105 110.786 38.5322C110.489 38.8539 110.341 39.3187 110.341 39.9269V43.1305H109.375V37.3173H110.341V38.1554C110.531 37.8513 110.787 37.6181 111.11 37.4553C111.431 37.2925 111.787 37.2113 112.175 37.2113C112.663 37.2113 113.095 37.3209 113.47 37.5401C113.844 37.7593 114.124 38.081 114.308 38.5051C114.471 38.095 114.739 37.777 115.114 37.5505C115.489 37.3241 115.907 37.2109 116.366 37.2109C116.819 37.2109 117.222 37.3049 117.576 37.4922L117.575 37.4938Z" fill="#BF2315" stroke="#BF2315" stroke-width="0.2"/>
<path d="M126.637 40.5897H121.99C122.025 41.1623 122.221 41.6099 122.579 41.9315C122.936 42.2532 123.369 42.414 123.879 42.414C124.296 42.414 124.644 42.3168 124.924 42.1227C125.203 41.928 125.399 41.6683 125.512 41.3427H126.552C126.396 41.9015 126.085 42.356 125.618 42.7057C125.151 43.0561 124.572 43.2309 123.879 43.2309C123.327 43.2309 122.834 43.1073 122.399 42.8597C121.964 42.6121 121.622 42.2604 121.375 41.804C121.127 41.3476 121.004 40.8191 121.004 40.2178C121.004 39.6166 121.124 39.09 121.364 38.6375C121.605 38.185 121.942 37.8366 122.377 37.5926C122.812 37.3486 123.312 37.2266 123.879 37.2266C124.43 37.2266 124.918 37.3469 125.342 37.5871C125.766 37.8275 126.094 38.1583 126.324 38.5791C126.553 39 126.668 39.4756 126.668 40.0058C126.668 40.1898 126.658 40.3845 126.637 40.5894V40.5897ZM125.427 38.8555C125.265 38.5902 125.043 38.3883 124.764 38.2506C124.485 38.1129 124.176 38.0438 123.836 38.0438C123.348 38.0438 122.932 38.1997 122.589 38.5106C122.247 38.8222 122.05 39.2535 122.001 39.8051H125.671C125.671 39.4375 125.59 39.1207 125.427 38.8558V38.8555Z" fill="#BF2315" stroke="#BF2315" stroke-width="0.2"/>
<path d="M133.551 37.8566C133.989 38.2846 134.208 38.9015 134.208 39.7079V43.1344H133.253V39.8456C133.253 39.2659 133.109 38.8219 132.819 38.5142C132.528 38.2066 132.133 38.0526 131.63 38.0526C131.122 38.0526 130.716 38.2118 130.416 38.5299C130.115 38.8483 129.966 39.3112 129.966 39.9197V43.1341H129V37.3209H129.966V38.1482C130.156 37.8513 130.416 37.6213 130.745 37.4589C131.074 37.2961 131.436 37.2148 131.833 37.2148C132.54 37.2148 133.112 37.4289 133.551 37.8566H133.551Z" fill="#BF2315" stroke="#BF2315" stroke-width="0.2"/>
<path d="M138.031 38.115V41.5414C138.031 41.8246 138.091 42.0243 138.212 42.1407C138.332 42.2575 138.54 42.3156 138.837 42.3156H139.548V43.1325H138.678C138.141 43.1325 137.737 43.0088 137.469 42.7612C137.2 42.5136 137.066 42.1071 137.066 41.5411V38.1147H136.312V37.3193H137.066V35.8555H138.031V37.3193H139.548V38.1147H138.031V38.115Z" fill="#BF2315" stroke="#BF2315" stroke-width="0.2"/>
<path d="M146.703 42.9483C146.318 42.7751 146.015 42.5346 145.796 42.227C145.577 41.9194 145.464 41.5641 145.457 41.1609H146.486C146.521 41.5076 146.664 41.7993 146.915 42.0362C147.167 42.273 147.533 42.3914 148.013 42.3914C148.473 42.3914 148.835 42.2766 149.1 42.0463C149.366 41.8166 149.498 41.5213 149.498 41.1605C149.498 40.8777 149.42 40.648 149.265 40.4712C149.11 40.2947 148.914 40.16 148.682 40.068C148.448 39.9763 148.133 39.8771 147.737 39.7711C147.25 39.6439 146.859 39.5163 146.565 39.3891C146.272 39.2618 146.02 39.0622 145.812 38.7898C145.604 38.5177 145.499 38.1517 145.499 37.692C145.499 37.2888 145.602 36.9319 145.807 36.6206C146.011 36.3094 146.3 36.069 146.671 35.8993C147.043 35.7297 147.469 35.6445 147.949 35.6445C148.643 35.6445 149.21 35.8178 149.652 36.1646C150.094 36.511 150.343 36.9707 150.4 37.5436H149.34C149.304 37.2607 149.156 37.0115 148.894 36.7955C148.632 36.5799 148.285 36.4722 147.854 36.4722C147.451 36.4722 147.122 36.5766 146.868 36.7851C146.613 36.9938 146.486 37.2855 146.486 37.66C146.486 37.9288 146.562 38.1481 146.714 38.318C146.866 38.4877 147.054 38.6169 147.276 38.705C147.499 38.7937 147.812 38.8945 148.215 39.0074C148.703 39.1418 149.096 39.2742 149.393 39.4051C149.69 39.5362 149.944 39.7375 150.156 40.0099C150.369 40.282 150.475 40.6516 150.475 41.1184C150.475 41.4789 150.379 41.8185 150.188 42.137C149.997 42.4554 149.714 42.7134 149.34 42.9114C148.965 43.1095 148.523 43.2083 148.014 43.2083C147.526 43.2083 147.089 43.1219 146.703 42.9483H146.703Z" fill="#BF2315" stroke="#BF2315" stroke-width="0.2"/>
<path d="M157.962 37.3242L154.462 45.8745H153.464L154.61 43.0738L152.266 37.3242H153.337L155.162 42.0341L156.965 37.3242H157.962V37.3242Z" fill="#BF2315" stroke="#BF2315" stroke-width="0.2"/>
<path d="M160.85 43.0022C160.496 42.8502 160.217 42.6382 160.011 42.3658C159.806 42.0937 159.693 41.7808 159.672 41.4272H160.669C160.698 41.7175 160.834 41.954 161.078 42.138C161.321 42.322 161.642 42.4137 162.038 42.4137C162.405 42.4137 162.695 42.3328 162.908 42.1697C163.12 42.0072 163.226 41.802 163.226 41.5544C163.226 41.2999 163.113 41.1107 162.887 40.9871C162.66 40.8634 162.31 40.7414 161.836 40.621C161.405 40.5082 161.053 40.393 160.78 40.2762C160.509 40.1598 160.275 39.9862 160.081 39.7565C159.886 39.5269 159.789 39.2244 159.789 38.8496C159.789 38.5527 159.877 38.2806 160.054 38.033C160.231 37.7854 160.482 37.589 160.807 37.4442C161.132 37.2993 161.503 37.2266 161.921 37.2266C162.565 37.2266 163.085 37.3894 163.48 37.7146C163.877 38.0399 164.088 38.4855 164.117 39.0509H163.152C163.131 38.7471 163.009 38.5031 162.786 38.3191C162.563 38.1351 162.264 38.0431 161.89 38.0431C161.543 38.0431 161.267 38.1175 161.062 38.2663C160.857 38.4147 160.754 38.6092 160.754 38.8496C160.754 39.0408 160.816 39.198 160.94 39.322C161.063 39.4456 161.22 39.5448 161.407 39.6189C161.594 39.6929 161.854 39.7764 162.187 39.8681C162.604 39.9813 162.943 40.0929 163.205 40.2022C163.466 40.3118 163.691 40.4765 163.879 40.6954C164.066 40.915 164.163 41.2011 164.17 41.5547C164.17 41.8731 164.082 42.1596 163.905 42.414C163.729 42.6688 163.479 42.8685 163.157 43.0133C162.835 43.1582 162.466 43.2309 162.048 43.2309C161.603 43.2309 161.204 43.1546 160.85 43.0026V43.0022Z" fill="#BF2315" stroke="#BF2315" stroke-width="0.2"/>
<path d="M167.765 38.115V41.5414C167.765 41.8246 167.825 42.0243 167.946 42.1407C168.066 42.2575 168.274 42.3156 168.572 42.3156H169.282V43.1325H168.413C167.875 43.1325 167.472 43.0088 167.203 42.7612C166.935 42.5136 166.8 42.1071 166.8 41.5411V38.1147H166.047V37.3193H166.8V35.8555H167.765V37.3193H169.282V38.1147H167.765V38.115Z" fill="#BF2315" stroke="#BF2315" stroke-width="0.2"/>
<path d="M176.781 40.5897H172.135C172.17 41.1623 172.366 41.6099 172.724 41.9315C173.081 42.2532 173.514 42.414 174.024 42.414C174.44 42.414 174.789 42.3168 175.068 42.1227C175.348 41.928 175.544 41.6683 175.657 41.3427H176.696C176.541 41.9015 176.23 42.356 175.763 42.7057C175.296 43.0561 174.716 43.2309 174.024 43.2309C173.472 43.2309 172.978 43.1073 172.543 42.8597C172.109 42.6121 171.767 42.2604 171.52 41.804C171.272 41.3476 171.148 40.8191 171.148 40.2178C171.148 39.6166 171.268 39.09 171.509 38.6375C171.749 38.185 172.087 37.8366 172.522 37.5926C172.957 37.3486 173.457 37.2266 174.023 37.2266C174.575 37.2266 175.063 37.3469 175.487 37.5871C175.911 37.8275 176.238 38.1583 176.468 38.5791C176.698 39 176.813 39.4756 176.813 40.0058C176.813 40.1898 176.802 40.3845 176.781 40.5894V40.5897ZM175.572 38.8555C175.409 38.5902 175.188 38.3883 174.909 38.2506C174.629 38.1129 174.32 38.0438 173.981 38.0438C173.492 38.0438 173.077 38.1997 172.734 38.5106C172.391 38.8222 172.195 39.2535 172.145 39.8051H175.816C175.816 39.4375 175.735 39.1207 175.572 38.8558V38.8555Z" fill="#BF2315" stroke="#BF2315" stroke-width="0.2"/>
<path d="M187.348 37.4938C187.702 37.6814 187.981 37.9626 188.186 38.3371C188.392 38.712 188.494 39.168 188.494 39.7053V43.1318H187.54V39.843C187.54 39.2633 187.396 38.8193 187.11 38.5116C186.823 38.204 186.436 38.05 185.948 38.05C185.446 38.05 185.046 38.2112 184.749 38.5328C184.452 38.8545 184.304 39.3194 184.304 39.9275V43.1311H183.349V39.8424C183.349 39.2626 183.206 38.8186 182.92 38.511C182.633 38.2033 182.246 38.0494 181.758 38.0494C181.256 38.0494 180.856 38.2105 180.559 38.5322C180.263 38.8539 180.114 39.3187 180.114 39.9269V43.1305H179.148V37.3173H180.114V38.1554C180.305 37.8513 180.561 37.6181 180.883 37.4553C181.205 37.2925 181.56 37.2113 181.949 37.2113C182.437 37.2113 182.868 37.3209 183.243 37.5401C183.618 37.7593 183.897 38.081 184.081 38.5051C184.244 38.095 184.513 37.777 184.888 37.5505C185.262 37.3241 185.68 37.2109 186.14 37.2109C186.592 37.2109 186.995 37.3049 187.349 37.4922L187.348 37.4938Z" fill="#BF2315" stroke="#BF2315" stroke-width="0.2"/>
<path d="M191.994 43.0022C191.64 42.8502 191.362 42.6382 191.156 42.3658C190.951 42.0937 190.838 41.7808 190.816 41.4272H191.814C191.842 41.7175 191.978 41.954 192.222 42.138C192.466 42.322 192.786 42.4137 193.183 42.4137C193.55 42.4137 193.84 42.3328 194.052 42.1697C194.265 42.0072 194.371 41.802 194.371 41.5544C194.371 41.2999 194.258 41.1107 194.031 40.9871C193.804 40.8634 193.455 40.7414 192.981 40.621C192.549 40.5082 192.198 40.393 191.925 40.2762C191.653 40.1598 191.42 39.9862 191.225 39.7565C191.031 39.5269 190.934 39.2244 190.934 38.8496C190.934 38.5527 191.022 38.2806 191.199 38.033C191.376 37.7854 191.627 37.589 191.952 37.4442C192.277 37.2993 192.648 37.2266 193.066 37.2266C193.709 37.2266 194.229 37.3894 194.625 37.7146C195.021 38.0399 195.233 38.4855 195.261 39.0509H194.296C194.275 38.7471 194.153 38.5031 193.93 38.3191C193.708 38.1351 193.409 38.0431 193.034 38.0431C192.687 38.0431 192.411 38.1175 192.206 38.2663C192.001 38.4147 191.899 38.6092 191.899 38.8496C191.899 39.0408 191.961 39.198 192.084 39.322C192.208 39.4456 192.364 39.5448 192.551 39.6189C192.739 39.6929 192.999 39.7764 193.331 39.8681C193.748 39.9813 194.088 40.0929 194.35 40.2022C194.611 40.3118 194.836 40.4765 195.024 40.6954C195.211 40.915 195.308 41.2011 195.315 41.5547C195.315 41.8731 195.226 42.1596 195.05 42.414C194.873 42.6688 194.624 42.8685 194.302 43.0133C193.98 43.1582 193.61 43.2309 193.193 43.2309C192.748 43.2309 192.348 43.1546 191.994 43.0026V43.0022Z" fill="#BF2315" stroke="#BF2315" stroke-width="0.2"/>
<path d="M125.977 8.09773V0.046875L130.607 4.30589V12.0732L125.977 8.09773Z" fill="#1F428E"/>
</svg>
